<?xml version="1.0" encoding="utf-8"?>
<!-- Generator: Adobe Illustrator 18.1.1, SVG Export Plug-In . SVG Version: 6.00 Build 0)  -->
<svg version="1.1" id="Layer_1" xmlns="http://www.w3.org/2000/svg" xmlns:xlink="http://www.w3.org/1999/xlink" x="0px" y="0px"
	 viewBox="0 0 200 150" enable-background="new 0 0 200 150" xml:space="preserve">
<g>
	<path fill="#00586F" d="M99.9,13.8L34.1,55.9L33.9,56L2.1,76.3l97.8,62.5l97.8-62.5L99.9,13.8z M160.1,97.1c-2.2,1.3-3.7,1.8-4.7,2
		l-16.1,0.6l14.3,0.5c0.9,0.2,0.7,1-2.6,2.1c-1.7,0.5-3.1,2.2-4.8,3.5c-1,0.7-5.2,3.4-7.9,5.3l-4.8,3c-1,0.5-2,1.1-3.1,1.9
		c-0.1,0.1-0.1,0.1-0.2,0.2l-3.7,2.4c-0.5,0.3-1,0.5-1.4,0.8c-1.5,0.9-3.2,1.1-3.7,1.1L95.2,121l24.1,0.5c0.1,0,0.1,0,0.3,0
		c0.6,0,0.9,0.7,0.2,1.2c-0.3,0.3-4.5,2.9-5.7,3.5c-1.2,0.6-6.1,3.8-7.2,4.6c-1.1,0.8-6.2,4.1-7,4.2c-0.8,0.2-5.6-3.3-6.9-4.1
		c-1.3-0.8-3.9-2.7-4.8-3.3c-0.9-0.7-8.9-5.3-9.6-5.7c-0.6-0.4-0.3-0.6-0.1-0.6l8.1-0.3l-8.2-0.3l0.1,0c0,0-2.7-0.4-5.4-2.3
		c-2.7-1.9-5-3.9-8.6-5.9c-3.7-1.9-12.4-8.6-16-10.3c-2.4-1.1-2.5-1.9-1.4-2.1l8.6-0.4l-10.4-0.5l0.1,0c0,0-1.8,0.1-8.3-4
		c-6.5-4.2-7.6-5.5-9.8-6.4c-2.2-0.9-8.5-6-11.5-7.5c-3-1.5-7.4-4-5.2-4c2.2,0,5.2-0.4,7.5-0.5c-3.2-0.5-6-0.1-7.4-0.1
		c-1.4,0-3-0.5-1.9-1.1c0.2-0.1,0.5-0.3,0.7-0.5l2.6-1.6c1.3-0.7,3.1-1.7,4.7-2.7c2-1.3,2.9-1.5,6.8-4.1c3.9-2.6,6.9-4.9,9.6-6.5
		c2.9-1.7,7.5-4.6,9.8-6c2.3-1.4,4.6-2.2,7.3-3.5c2.7-1.3,15.2-1,15.2-1s-6.3-0.3-8.5-0.3c-4.6,0-4.6-1.5-3.4-2.2
		c1.2-0.8,6.4-3.7,9.8-5.9c3.8-2.5,6.5-4.4,8.3-5.6c1.8-1.2,4.2-2.9,7.2-3c0,0,0,0-0.1,0l36.2-0.6l-33.8-0.6c0,0,0.1,0,0.1,0
		c-1.2-0.1-1.3-0.8-1-1.2c0.7-1.2,7.3-4.4,10-6.3c2.7-1.9,8.9-6.1,9.8-6.3c0.4-0.1,3.9,2.3,7.6,4.6c1.4,0.9,7.9,5.4,9.2,6
		c2.1,0.9,4.1,3.9,1.3,3.8c5,0.2,8.3,2.2,11.2,4.2c2.9,2.1,8.4,5.9,12.6,8c1.1,0.5,2.1,1.1,3.1,1.7l5.2,3.3c0.5,0.4,0.9,0.7,1.3,0.9
		c1.5,1.1,0.3,1.4,0.3,1.4l0.1,0L139.3,52l15,0.5c0.9,0.2,2.3,1.2,3.1,1.8c1.4,1,8.5,5.5,11.4,7.2c3,1.7,6.2,4.3,9,6
		c3,1.7,8.4,5.1,10.7,6.4c2,1.2,1.8,1.7,0.8,1.8l-0.4,0c0,0-0.1,0-0.1,0l0,0l-9.1,0.5l10.4,0.6c0.5,0.2-0.8,0.8-2.3,1.9
		c-1.9,1.4-3.9,2.4-6.3,4.2c-2.4,1.8-4.5,2.7-7.3,4.7c-3,2.1-7.1,4.4-10.6,7c-0.5,0.4-1,0.8-1.5,1.1L160.1,97.1z"/>
	<polygon fill="#00586F" points="25,71.1 25.3,72.3 25.3,80.4 25,81.6 27.9,81.6 27.5,80.1 27.5,77.2 27.7,77.1 29,77.1 30.1,77.5 
		30.1,74.9 29,75.3 27.7,75.3 27.5,75.1 27.5,73 27.7,72.9 30.4,72.9 31.8,73.3 31,71.1 	"/>
	<polygon fill="#00586F" points="40.6,71.1 37.8,71.1 38.1,72.3 38.1,78.7 37.8,79.3 37.2,79.6 36.1,79.6 35.5,79.3 35.2,78.7 
		35.2,72.3 35.5,71.1 32.5,71.1 32.8,72.3 32.8,78.7 32.7,79.6 34.6,81.6 38.5,81.6 40.5,79.6 40.3,78.7 40.3,72.3 	"/>
	<polygon fill="#00586F" points="45.7,79.6 45.5,79.4 45.5,72.6 45.8,71.1 42.9,71.1 43.2,72.3 43.2,80.4 42.9,81.6 48.8,81.6 
		49.6,79.1 48,79.6 	"/>
	<polygon fill="#00586F" points="48.8,71.1 47.9,73.5 49.5,73 50.9,73 51,73.2 51,80.2 50.6,81.6 53.7,81.6 53.3,80.2 53.3,73.2 
		53.4,73 54.8,73 56.4,73.5 55.6,71.1 	"/>
	<path fill="#00586F" d="M65.3,73l-2-2h-3.9l-2,2v6.6l2,2h3.9l2-2V73z M62.9,78.7l-0.3,0.6L62,79.6h-1.2l-0.6-0.3l-0.3-0.6v-5
		l0.3-0.6l0.6-0.3H62l0.6,0.3l0.3,0.6V78.7z"/>
	<polygon fill="#00586F" points="73.5,72.3 73.5,76.3 73.5,77.1 73.2,76.3 70.6,71.1 67.7,71.1 68,72.3 68,80.4 67.7,81.6 
		70.3,81.6 70,80.4 70,75.1 69.9,74.4 70.2,75.1 73.5,81.6 75.4,81.6 75.4,72.3 75.7,71.1 73.2,71.1 	"/>
	<polygon fill="#00586F" points="82.2,72.3 82.2,80.4 81.9,81.6 84.8,81.6 84.5,80.1 84.5,77.2 84.6,77.1 85.9,77.1 87,77.5 
		87,74.9 85.9,75.3 84.6,75.3 84.5,75.1 84.5,73 84.6,72.9 87.3,72.9 88.7,73.3 87.9,71.1 81.9,71.1 	"/>
	<polygon fill="#00586F" points="92.4,71.1 89.6,71.1 89.9,72.3 89.9,80.4 89.6,81.6 92.4,81.6 92.1,80.4 92.1,72.3 	"/>
	<polygon fill="#00586F" points="98.5,79.3 97.9,79.6 95.8,79.6 94.2,79.1 95.1,81.6 99.2,81.6 101.2,79.6 101.2,76.9 99.7,75.4 
		97.5,74.9 97,74.4 97,73.8 97.3,73.2 97.9,72.9 99.8,72.9 101.2,73.3 100.4,71.1 96.5,71.1 94.5,73 94.5,75.3 96,76.7 98.2,77.2 
		98.8,77.8 98.8,78.7 	"/>
	<polygon fill="#00586F" points="103.3,81.6 106.1,81.6 105.8,80.4 105.8,76.9 106,76.8 108.6,76.8 108.7,76.9 108.7,80.4 
		108.4,81.6 111.3,81.6 111,80.4 111,72.3 111.3,71.1 108.4,71.1 108.7,72.3 108.7,74.8 108.6,75 106,75 105.8,74.8 105.8,72.3 
		106.1,71.1 103.3,71.1 103.6,72.3 103.6,80.4 	"/>
	<polygon fill="#00586F" points="127.4,80.4 127.4,72.3 127.7,71.1 124.7,71.1 122.6,75.8 122.6,76.2 122.5,75.8 120.4,71.1 
		117.4,71.1 117.7,72.3 117.7,80.4 117.4,81.6 120,81.6 119.7,80.4 119.7,75 119.6,74.4 119.8,75 122.4,80.8 122.5,80.8 125,75 
		125.3,74.4 125.2,75 125.2,80.4 124.9,81.6 127.7,81.6 	"/>
	<path fill="#00586F" d="M135.4,72l0.2-1h-4.1l0.2,1l-2.3,8.4l-0.6,1.2h2.8l-0.2-1.2l0.3-1.2L132,79h2.9l0.2,0.2l0.3,1.2l-0.2,1.2
		h3.1l-0.6-1.2L135.4,72z M134.3,77.2h-1.8l-0.2-0.2l1-4.1l0.1-0.5l0.1,0.5l1,4.1L134.3,77.2z"/>
	<path fill="#00586F" d="M145.7,77.1l1.7-1.7v-2.6l-1.8-1.8h-6.2l0.3,1.2v8.1l-0.3,1.2h2.9l-0.3-1.2v-2.7l0.2-0.2h1.1l0.3,0.2
		l1.3,3.9h2.9l-0.8-1.4L145.7,77.1z M145,74.7l-0.3,0.6l-0.8,0.4h-1.8l-0.2-0.2V73l0.2-0.1h1.8l0.8,0.4l0.3,0.6V74.7z"/>
	<polygon fill="#00586F" points="158.2,71.1 155.4,71.1 155.1,72 152,75 152.1,74.8 152.1,72.3 152.4,71.1 149.5,71.1 149.8,72.3 
		149.8,80.4 149.5,81.6 152.4,81.6 152.1,80.4 152.1,77.5 152.2,77.2 153.2,76.2 153.4,76.2 154.8,80.2 154.9,81.6 158.1,81.6 
		157.3,80.2 155.2,74.4 158.3,71.2 	"/>
	<polygon fill="#00586F" points="159.4,81.6 165.6,81.6 166.4,79.1 164.9,79.6 162.2,79.6 162,79.4 162,76.9 162.2,76.8 163.4,76.8 
		164.6,77.2 164.6,74.6 163.4,75 162.2,75 162,74.8 162,73 162.2,72.9 164.9,72.9 166.2,73.3 165.5,71.1 159.4,71.1 159.7,72.3 
		159.7,80.4 	"/>
	<polygon fill="#00586F" points="169.4,73 169.5,73.2 169.5,80.2 169.1,81.6 172.2,81.6 171.8,80.2 171.8,73.2 171.9,73 173.3,73 
		174.9,73.5 174,71.1 167.3,71.1 166.4,73.5 168,73 	"/>
	<g>
		<path fill="#00586F" d="M81.4,97.1c2.1,2.5,4.8,4.4,7.9,5.3l1.2-7.8C86.7,95,83.6,95.8,81.4,97.1z M84.8,97.8
			c-0.4,0-0.7-0.3-0.7-0.7c0-0.4,0.3-0.7,0.7-0.7c0.4,0,0.7,0.3,0.7,0.7C85.4,97.5,85.1,97.8,84.8,97.8z"/>
		<path fill="#00586F" d="M90.2,102.7c0.5,0.1,1.1,0.2,1.7,0.3l-0.2-8.5c0,0-0.6,0-0.8,0.1L90.2,102.7z"/>
		<path fill="#00586F" d="M92.2,94.5l0.1,8.6c0.5,0.1,1,0.1,1.5,0.1l0.6-8.8C93.6,94.4,92.9,94.5,92.2,94.5z"/>
		<path fill="#00586F" d="M95,94.4l-0.9,8.8c0.8,0,1.6,0,2.4-0.1l0.2-8.7C96.1,94.4,95,94.4,95,94.4z"/>
		<path fill="#00586F" d="M97.1,94.4l0,8.6c0,0,1.3-0.2,1.9-0.3l0.2-8.1c-0.4,0-0.9-0.1-1.3-0.1C97.6,94.5,97.4,94.5,97.1,94.4z"/>
		<path fill="#00586F" d="M100.1,94.6l-0.7,8c0.6-0.2,1.3-0.3,1.8-0.5l1.1-7.2C101.6,94.8,100.9,94.7,100.1,94.6z"/>
		<path fill="#00586F" d="M102.7,95l-0.9,7c0.5-0.1,1-0.3,1.5-0.5l0.9-6.2C103.7,95.2,103.2,95.1,102.7,95z"/>
		<path fill="#00586F" d="M104.6,95.4l-0.6,5.9c0.9-0.3,1.7-0.6,2.4-0.9l-0.2-4.6C105.7,95.6,105.2,95.5,104.6,95.4z"/>
		<path fill="#00586F" d="M106.8,100.3c0.4-0.1,0.8-0.3,1.1-0.4l0.4-3.5c-0.5-0.1-0.9-0.3-1.5-0.4L106.8,100.3z"/>
		<path fill="#00586F" d="M117.2,94.3c0,0-2.9,2.9-5,2.9c-0.8,0-1.9-0.3-3.3-0.7l-0.5,3.2c1.7-0.6,2.9-1,3.7-0.7
			c1.8,0.6,6.4,3.3,6.4,3.3C115.5,98.9,117.2,94.3,117.2,94.3z"/>
	</g>
	<polygon fill="#00586F" points="73.5,60.5 70.7,57.7 74.3,59.7 74.9,59.1 71.1,55.2 70.5,55.8 72.8,58.1 69.9,56.4 69.1,57.1 
		73,61 	"/>
	<polygon fill="#00586F" points="77.2,56.2 76.3,54.9 77.2,54.2 76.8,53.6 75.8,54.3 74.9,53.1 76.1,52.2 75.7,51.6 73.8,53 
		77,57.4 78.9,56 78.4,55.3 	"/>
	<polygon fill="#00586F" points="82.5,53.8 81.5,51.1 83.1,53.5 84.1,53 82.1,47.9 81.5,48.2 83.1,52.3 80.7,48.6 80,49 81.6,53 
		79.2,49.4 78.4,49.8 81.5,54.3 	"/>
	<polygon fill="#00586F" points="91.1,50.6 91.9,50.4 91.5,48.6 91.7,44.9 90.9,45 90.9,47.6 89.7,45.3 88.8,45.5 90.7,48.8 	"/>
	<path fill="#00586F" d="M95.1,48.5c0.1,0.9,0.6,1.3,1.4,1.2c0.8-0.1,1.2-0.6,1.2-1.5l-0.3-2.8c-0.1-0.9-0.6-1.3-1.4-1.2
		c-0.8,0.1-1.2,0.6-1.2,1.5L95.1,48.5z M96.1,45c0.3,0,0.5,0.1,0.5,0.5l0.3,2.9c0,0.4-0.1,0.5-0.4,0.6c-0.3,0-0.5-0.1-0.5-0.5
		l-0.3-2.9C95.7,45.2,95.8,45,96.1,45z"/>
	<path fill="#00586F" d="M101.5,47.4l0.3,0c0.4,0,0.5,0.2,0.5,0.7l0,0.9c0,0.4,0,0.5,0,0.7l0.9,0c-0.1-0.2-0.1-0.4-0.1-0.7l0-0.8
		c0-0.6-0.1-1-0.5-1.2c0.4-0.2,0.6-0.5,0.6-1.1l0-0.4c0-0.8-0.3-1.3-1.2-1.3l-1.3-0.1l-0.3,5.4l0.9,0L101.5,47.4z M101.6,44.9l0.4,0
		c0.3,0,0.4,0.2,0.4,0.6l0,0.5c0,0.4-0.2,0.6-0.5,0.5l-0.3,0L101.6,44.9z"/>
	<polygon fill="#00586F" points="106.9,48.5 107.3,48 107.7,50.3 108.6,50.5 108,47.3 109.6,45.2 108.7,45 107.2,47.1 107.6,44.8 
		106.8,44.6 105.8,50 106.6,50.1 	"/>
	<path fill="#00586F" d="M115.3,52.9c0.8,0.3,1.4,0.1,1.7-0.7l0.3-0.7l-0.7-0.3l-0.3,0.7c-0.2,0.4-0.4,0.4-0.6,0.3
		c-0.2-0.1-0.3-0.3-0.2-0.7l1.2-2.7c0.2-0.4,0.4-0.4,0.6-0.3s0.3,0.3,0.2,0.7l-0.2,0.5l0.7,0.3l0.2-0.5c0.4-0.8,0.2-1.4-0.6-1.8
		c-0.8-0.3-1.4-0.1-1.7,0.7l-1.2,2.6C114.3,51.9,114.5,52.5,115.3,52.9z"/>
	
		<rect x="120.2" y="49.8" transform="matrix(0.857 0.5154 -0.5154 0.857 44.3264 -54.6487)" fill="#00586F" width="0.9" height="5.4"/>
	<polygon fill="#00586F" points="123.1,57.6 125.9,53.9 126.7,54.4 127.1,53.8 125,52.2 124.6,52.8 125.3,53.3 122.4,57 	"/>
	<polygon fill="#00586F" points="126.8,61 128.1,59.7 131.5,58 130.9,57.4 128.7,58.6 130,56.4 129.4,55.8 127.5,59.1 126.2,60.4 	
		"/>
	<ellipse fill="#00586F" cx="91" cy="121" rx="0.9" ry="0.1"/>
	<ellipse fill="#00586F" cx="136.6" cy="51.9" rx="0.9" ry="0.1"/>
	<g>
		<g>
			<path fill="#00586F" d="M123.4,97.3v0.5h0.5v3.2h0.6v-4.1h-0.4C124,97.1,123.9,97.3,123.4,97.3z"/>
			<path fill="#00586F" d="M127.7,96.8c-0.7,0-1,0.4-1,1v0.1c0,0.4,0.1,0.7,0.4,0.8c-0.3,0.2-0.4,0.5-0.4,0.9v0.3c0,0.7,0.4,1,1,1
				c0.7,0,1-0.4,1-1v-0.3c0-0.4-0.1-0.7-0.4-0.9c0.3-0.1,0.4-0.4,0.4-0.8v-0.1C128.7,97.1,128.4,96.8,127.7,96.8z M128.1,99.9
				c0,0.4-0.2,0.5-0.4,0.5c-0.2,0-0.4-0.1-0.4-0.5v-0.4c0-0.3,0.1-0.5,0.4-0.5c0.2,0,0.4,0.1,0.4,0.5V99.9z M128.1,98.1
				c0,0.3-0.2,0.4-0.4,0.4c-0.2,0-0.4-0.1-0.4-0.4v-0.2c0-0.4,0.2-0.5,0.4-0.5c0.2,0,0.4,0.1,0.4,0.5V98.1z"/>
			<path fill="#00586F" d="M131.6,96.8c-0.6,0-1,0.4-1,1v0.4h0.6v-0.4c0-0.3,0.1-0.4,0.3-0.4c0.2,0,0.3,0.1,0.3,0.5
				c0,1.2-1.3,1.4-1.3,2.6v0.5h1.9v-0.6h-1.2c0,0,0-0.1,0-0.1c0-0.7,1.3-1.2,1.3-2.5C132.5,97.1,132.2,96.8,131.6,96.8z"/>
			<path fill="#00586F" d="M135.4,96.8c-0.6,0-1,0.4-1,1v0.4h0.6v-0.4c0-0.3,0.1-0.4,0.3-0.4c0.2,0,0.3,0.1,0.3,0.5
				c0,1.2-1.3,1.4-1.3,2.6v0.5h1.9v-0.6h-1.2c0,0,0-0.1,0-0.1c0-0.7,1.3-1.2,1.3-2.5C136.4,97.1,136,96.8,135.4,96.8z"/>
		</g>
		<g>
			<path fill="#00586F" d="M64.5,96.7c0.6,0,1,0.4,1,1.1v0.1h-0.6v-0.2c0-0.3-0.1-0.4-0.3-0.4c-0.2,0-0.3,0.1-0.3,0.4
				c0,0.9,1.3,1,1.3,2.2c0,0.7-0.3,1.1-1,1.1c-0.6,0-1-0.4-1-1.1v-0.3h0.6v0.3c0,0.3,0.1,0.4,0.3,0.4c0.2,0,0.3-0.1,0.3-0.4
				c0-0.9-1.3-1-1.3-2.2C63.5,97,63.9,96.7,64.5,96.7z"/>
			<path fill="#00586F" d="M66.6,96.7h0.7v4.2h-0.7V96.7z"/>
			<path fill="#00586F" d="M69,97.9v3h-0.6v-4.2h0.8l0.7,2.5v-2.5h0.6v4.2h-0.7L69,97.9z"/>
			<path fill="#00586F" d="M73.6,99.3v0.6c0,0.7-0.3,1.1-1,1.1c-0.6,0-1-0.4-1-1.1v-2.2c0-0.7,0.3-1.1,1-1.1c0.6,0,1,0.4,1,1.1v0.4
				H73v-0.4c0-0.3-0.1-0.4-0.3-0.4c-0.2,0-0.3,0.1-0.3,0.4v2.3c0,0.3,0.1,0.4,0.3,0.4c0.2,0,0.3-0.1,0.3-0.4v-0.6H73.6z"/>
			<path fill="#00586F" d="M75.4,98.5h0.9v0.6h-0.9v1.2h1.1v0.6h-1.8v-4.2h1.8v0.6h-1.1V98.5z"/>
		</g>
	</g>
</g>
</svg>
